<?xml version="1.0" encoding="UTF-8" standalone="no"?>
<svg
   xmlns:dc="http://purl.org/dc/elements/1.1/"
   xmlns:cc="http://creativecommons.org/ns#"
   xmlns:rdf="http://www.w3.org/1999/02/22-rdf-syntax-ns#"
   xmlns:svg="http://www.w3.org/2000/svg"
   xmlns="http://www.w3.org/2000/svg"
   width="200"
   height="200"
   id="svg2"
   version="1.1"
   viewBox="0 0 200 200">
  <defs
     id="defs4" />
  <metadata
     id="metadata7">
    <rdf:RDF>
      <cc:Work
         rdf:about="">
        <dc:format>image/svg+xml</dc:format>
        <dc:type
           rdf:resource="http://purl.org/dc/dcmitype/StillImage" />
        <dc:title></dc:title>
      </cc:Work>
    </rdf:RDF>
  </metadata>
  <g
     id="layer1"
     transform="translate(0,-852.3622)">
    <g
       id="text4101"
       style="font-style:normal;font-variant:normal;font-weight:500;font-stretch:normal;font-size:17.5px;line-height:125%;font-family:Century Schoolbook L;-inkscape-font-specification:Century Schoolbook L, Medium;text-align:start;letter-spacing:0px;word-spacing:0px;writing-mode:lr-tb;text-anchor:start;fill:#000000;fill-opacity:1;stroke:none;stroke-width:1px;stroke-linecap:butt;stroke-linejoin:miter;stroke-opacity:1">
      <path
         id="path4105"
         style="font-style:normal;font-variant:normal;font-weight:normal;font-stretch:normal;font-size:180px;line-height:125%;font-family:STIXGeneral;-inkscape-font-specification:STIXGeneral, Normal;text-align:center;writing-mode:lr-tb;text-anchor:middle;fill:#afafaf;fill-opacity:0.7"
         d="m 139.87,966.94217 c -2.34,9.9 -7.2,11.52 -11.16,11.52 -5.4,0 -7.74,-4.32 -8.82,-8.82 -1.08,-4.5 -1.08,-11.16 -1.08,-17.28 0,-10.8 1.08,-21.6 1.8,-26.64 l 21.42,0 0,-15.12 -51.480002,0 c -19.08,0 -27,8.28 -33.12,25.38 l 2.88,0 c 6.3,-9.18 13.14,-10.26 23.4,-10.26 -2.16,46.62 -9.72,50.4 -17.1,52.74 -2.52,0.72 -4.14,2.16 -4.14,4.14 0,6.3 3.6,11.52 12.06,11.52 19.08,0 16.74,-54.36 17.46,-68.4 l 16.740002,0 c -1.26,12.6 -2.88,30.06 -2.88,45.72 0,11.7 6.3,21.96 16.56,21.96 12.78,0 20.16,-14.94 20.16,-26.46 l -2.7,0 z" />
    </g>
  </g>
</svg>
